<svg width="25" height="25" viewBox="0 0 25 25" fill="none" xmlns="http://www.w3.org/2000/svg">
<path d="M20 0C21.3261 0 22.5979 0.554523 23.5355 1.54158C24.4732 2.52864 25 3.86737 25 5.26328V15.7898C25 17.1858 24.4732 18.5245 23.5355 19.5115C22.5979 20.4986 21.3261 21.0531 20 21.0531H14.095L8.1425 24.8124C7.96324 24.9257 7.75985 24.9898 7.55097 24.9989C7.34208 25.008 7.13436 24.9618 6.94682 24.8645C6.75928 24.7672 6.59792 24.622 6.47749 24.4421C6.35707 24.2622 6.28143 24.0534 6.2575 23.8348L6.25 23.6848V21.0531H5C3.7172 21.0531 2.48346 20.5341 1.55399 19.6035C0.624506 18.6728 0.0703903 17.4017 0.00625014 16.053L0 15.7898V5.26328C0 3.86737 0.526784 2.52864 1.46447 1.54158C2.40215 0.554523 3.67392 0 5 0H20ZM16.5 12.2187C16.2633 11.9745 15.9441 11.8392 15.6126 11.8426C15.2812 11.8461 14.9646 11.988 14.7325 12.2371C14.4415 12.5498 14.0942 12.7983 13.7108 12.9679C13.3275 13.1375 12.9158 13.2249 12.5 13.2249C12.0842 13.2249 11.6725 13.1375 11.2892 12.9679C10.9058 12.7983 10.5585 12.5498 10.2675 12.2371C10.0343 11.9937 9.71937 11.8568 9.39095 11.8558C9.06252 11.8549 8.74693 11.99 8.51241 12.232C8.27789 12.4741 8.14328 12.8035 8.13768 13.1492C8.13208 13.4949 8.25595 13.829 8.4825 14.0793C9.00622 14.6418 9.63131 15.0888 10.3212 15.3939C11.011 15.699 11.7517 15.8561 12.5 15.8561C13.2483 15.8561 13.989 15.699 14.6788 15.3939C15.3687 15.0888 15.9938 14.6418 16.5175 14.0793C16.7495 13.8301 16.878 13.4941 16.8748 13.1452C16.8715 12.7963 16.7367 12.463 16.5 12.2187ZM9.3875 6.5791H9.375C9.04348 6.5791 8.72554 6.71773 8.49112 6.9645C8.2567 7.21126 8.125 7.54595 8.125 7.89492C8.125 8.2439 8.2567 8.57858 8.49112 8.82535C8.72554 9.07211 9.04348 9.21074 9.375 9.21074H9.3875C9.71902 9.21074 10.037 9.07211 10.2714 8.82535C10.5058 8.57858 10.6375 8.2439 10.6375 7.89492C10.6375 7.54595 10.5058 7.21126 10.2714 6.9645C10.037 6.71773 9.71902 6.5791 9.3875 6.5791ZM15.6375 6.5791H15.625C15.2935 6.5791 14.9755 6.71773 14.7411 6.9645C14.5067 7.21126 14.375 7.54595 14.375 7.89492C14.375 8.2439 14.5067 8.57858 14.7411 8.82535C14.9755 9.07211 15.2935 9.21074 15.625 9.21074H15.6375C15.969 9.21074 16.287 9.07211 16.5214 8.82535C16.7558 8.57858 16.8875 8.2439 16.8875 7.89492C16.8875 7.54595 16.7558 7.21126 16.5214 6.9645C16.287 6.71773 15.969 6.5791 15.6375 6.5791Z" fill="#3181C6"/>
</svg>
