<svg width="25" height="25" viewBox="0 0 25 25" fill="none" xmlns="http://www.w3.org/2000/svg">
<path d="M0 22.1429V9.28571C0 8.83333 0.110937 8.40476 0.332812 8C0.554687 7.59524 0.860417 7.2619 1.25 7L10.625 0.571429C11.1719 0.190476 11.7969 0 12.5 0C13.2031 0 13.8281 0.190476 14.375 0.571429L23.75 7C24.1406 7.2619 24.4469 7.59524 24.6687 8C24.8906 8.40476 25.001 8.83333 25 9.28571V22.1429C25 22.9286 24.6937 23.6014 24.0812 24.1614C23.4687 24.7214 22.7333 25.0009 21.875 25H17.1875C16.7448 25 16.374 24.8629 16.075 24.5886C15.776 24.3143 15.626 23.9752 15.625 23.5714V16.4286C15.625 16.0238 15.475 15.6848 15.175 15.4114C14.875 15.1381 14.5042 15.0009 14.0625 15H10.9375C10.4948 15 10.124 15.1371 9.825 15.4114C9.52604 15.6857 9.37604 16.0248 9.375 16.4286V23.5714C9.375 23.9762 9.225 24.3157 8.925 24.59C8.625 24.8643 8.25416 25.0009 7.8125 25H3.125C2.26562 25 1.53021 24.7205 0.91875 24.1614C0.307291 23.6024 0.00104167 22.9295 0 22.1429Z" fill="#3181C6"/>
</svg>
