<svg width="25" height="25" viewBox="0 0 25 25" fill="none" xmlns="http://www.w3.org/2000/svg">
<path d="M18.0912 0H24.0829L24.2145 0.0174999L24.3448 0.0525001L24.4237 0.0850001C24.529 0.128333 24.625 0.190833 24.7119 0.2725L24.7645 0.3275L24.8224 0.39875L24.8934 0.51125L24.9447 0.62375L24.9697 0.70375L24.9882 0.78375L25 0.9025V6.5675C24.9999 6.80503 24.9049 7.03368 24.7343 7.20724C24.5636 7.3808 24.3299 7.48634 24.0805 7.50253C23.831 7.51872 23.5844 7.44436 23.3905 7.29446C23.1965 7.14456 23.0697 6.93031 23.0356 6.695L23.0264 6.5675V3.19875L14.5532 11.2487C14.3861 11.4075 14.1646 11.5041 13.929 11.5208C13.6933 11.5375 13.4592 11.4734 13.2691 11.34L13.1586 11.25L9.17194 7.6125L1.68551 14.7238C1.50944 14.8915 1.27305 14.9897 1.02387 14.9986C0.774695 15.0075 0.531211 14.9264 0.342373 14.7717C0.153535 14.617 0.0333446 14.4001 0.00596807 14.1647C-0.0214084 13.9292 0.0460587 13.6926 0.194804 13.5025L0.290852 13.3975L8.4746 5.6225C8.64185 5.46392 8.86344 5.36761 9.09909 5.35109C9.33475 5.33458 9.56881 5.39895 9.75874 5.5325L9.86926 5.6225L13.8559 9.26L21.6291 1.875H18.0899C17.8516 1.87469 17.6216 1.79251 17.4421 1.64363C17.2627 1.49475 17.146 1.28923 17.1136 1.065L17.1044 0.9375C17.1044 0.710953 17.1908 0.492072 17.3475 0.321337C17.5042 0.150601 17.7207 0.0395604 17.957 0.00874996L18.0912 0ZM0.988181 18.75C1.24989 18.75 1.50089 18.8488 1.68595 19.0246C1.871 19.2004 1.97497 19.4389 1.97497 19.6875V24.0625C1.97497 24.3111 1.871 24.5496 1.68595 24.7254C1.50089 24.9012 1.24989 25 0.988181 25C0.726469 25 0.475476 24.9012 0.290417 24.7254C0.105359 24.5496 0.00139414 24.3111 0.00139414 24.0625V19.6875C0.00139414 19.4389 0.105359 19.2004 0.290417 19.0246C0.475476 18.8488 0.726469 18.75 0.988181 18.75ZM8.55355 14.6875C8.55355 14.4389 8.44958 14.2004 8.26452 14.0246C8.07947 13.8488 7.82847 13.75 7.56676 13.75C7.30505 13.75 7.05406 13.8488 6.869 14.0246C6.68394 14.2004 6.57997 14.4389 6.57997 14.6875V24.0625C6.57997 24.3111 6.68394 24.5496 6.869 24.7254C7.05406 24.9012 7.30505 25 7.56676 25C7.82847 25 8.07947 24.9012 8.26452 24.7254C8.44958 24.5496 8.55355 24.3111 8.55355 24.0625V14.6875ZM14.1453 16.25C14.4071 16.25 14.658 16.3488 14.8431 16.5246C15.0282 16.7004 15.1321 16.9389 15.1321 17.1875V24.0625C15.1321 24.3111 15.0282 24.5496 14.8431 24.7254C14.658 24.9012 14.4071 25 14.1453 25C13.8836 25 13.6326 24.9012 13.4476 24.7254C13.2625 24.5496 13.1586 24.3111 13.1586 24.0625V17.1875C13.1586 16.9389 13.2625 16.7004 13.4476 16.5246C13.6326 16.3488 13.8836 16.25 14.1453 16.25ZM21.7107 10.9375C21.7107 10.6889 21.6067 10.4504 21.4217 10.2746C21.2366 10.0988 20.9856 10 20.7239 10C20.4622 10 20.2112 10.0988 20.0262 10.2746C19.8411 10.4504 19.7371 10.6889 19.7371 10.9375V24.0625C19.7371 24.3111 19.8411 24.5496 20.0262 24.7254C20.2112 24.9012 20.4622 25 20.7239 25C20.9856 25 21.2366 24.9012 21.4217 24.7254C21.6067 24.5496 21.7107 24.3111 21.7107 24.0625V10.9375Z" fill="#3181C6"/>
</svg>
