<svg width="57" height="57" viewBox="0 0 57 57" fill="none" xmlns="http://www.w3.org/2000/svg">
<path fill-rule="evenodd" clip-rule="evenodd" d="M19.6804 12.3245C19.8412 12.1167 20.059 12 20.2862 12C20.5133 12 20.7312 12.1167 20.8919 12.3245L27.7493 21.2015C27.9098 21.4096 28 21.6916 28 21.9857C28 22.2797 27.9098 22.5618 27.7493 22.7698L20.8919 31.6468C20.8134 31.7559 20.7188 31.8433 20.6137 31.9039C20.5085 31.9646 20.395 31.9972 20.2799 31.9998C20.1648 32.0025 20.0505 31.975 19.9438 31.9192C19.837 31.8634 19.7401 31.7804 19.6587 31.675C19.5773 31.5696 19.5131 31.4441 19.47 31.306C19.4269 31.1678 19.4057 31.0198 19.4078 30.8708C19.4098 30.7218 19.435 30.5749 19.4818 30.4388C19.5287 30.3026 19.5962 30.1801 19.6804 30.0786L25.0749 23.0953H8.85718C8.62984 23.0953 8.41181 22.9784 8.25106 22.7703C8.09031 22.5622 8 22.28 8 21.9857C8 21.6914 8.09031 21.4091 8.25106 21.201C8.41181 20.993 8.62984 20.876 8.85718 20.876H25.0749L19.6804 13.8928C19.5199 13.6847 19.4298 13.4027 19.4298 13.1087C19.4298 12.8146 19.5199 12.5326 19.6804 12.3245Z" fill="black"/>
</svg>
